<svg xmlns="http://www.w3.org/2000/svg" version="1.1" xmlns:xlink="http://www.w3.org/1999/xlink" xmlns:svgjs="http://svgjs.dev/svgjs" width="500" height="600" preserveAspectRatio="none" viewBox="0 0 500 600"><g mask="url(&quot;#SvgjsMask1103&quot;)" fill="none"><path d="M508.3333333333334 600L0 600 L0 422.85Q23.67 421.52, 25 445.2Q55.82 434.36, 66.66666666666667 465.18Q70.3 427.15, 108.33333333333334 430.78Q115.24 396.02, 150 402.92Q162.09 390.01, 175 402.11Q217.47 402.92, 216.66666666666669 445.39Q237.2 440.92, 241.66666666666669 461.45Q237.3 432.08, 266.6666666666667 427.71Q277.53 396.91, 308.33333333333337 407.77Q358.18 415.95, 350.00000000000006 465.79Q349.82 423.94, 391.66666666666674 423.76Q393.5 400.59, 416.66666666666674 402.42Q447.95 392.03, 458.3333333333334 423.31Q484.71 424.69, 483.3333333333334 451.07Q474.06 416.79, 508.3333333333334 407.52z" fill="#182f5d"></path><path d="M516.6666666666667 600L0 600 L0 493.5Q4.23 472.73, 25 476.96Q38.62 448.92, 66.66666666666667 462.54Q106.77 460.98, 108.33333333333334 501.09Q109.39 477.14, 133.33333333333334 478.2Q138.96 458.83, 158.33333333333334 464.46Q174.16 438.62, 200 454.45Q233.53 446.32, 241.66666666666669 479.85Q279.32 475.84, 283.33333333333337 513.49Q292.38 480.87, 325.00000000000006 489.91Q319.41 459.32, 350.00000000000006 453.73Q373.43 452.15, 375.00000000000006 475.58Q405.48 481.06, 400.00000000000006 511.54Q395.28 465.16, 441.66666666666674 460.44Q452.51 446.28, 466.66666666666674 457.12Q486.92 452.37, 491.66666666666674 472.62Q519.68 475.63, 516.6666666666667 503.65z" fill="#25467d"></path><path d="M516.6666666666667 600L0 600 L0 559.68Q-15.47 519.21, 25 503.75Q46.07 499.82, 50 520.89Q86.43 515.65, 91.66666666666667 552.08Q102.27 521.02, 133.33333333333334 531.63Q130.96 504.25, 158.33333333333334 501.88Q190.43 508.98, 183.33333333333334 541.07Q207.24 539.98, 208.33333333333334 563.89Q210.28 524.17, 250 526.12Q254.3 505.42, 275 509.72Q292.35 502.07, 300 519.42Q336.18 513.93, 341.6666666666667 550.11Q352.84 519.62, 383.33333333333337 530.8Q391.26 497.06, 425.00000000000006 504.99Q459.78 498.1, 466.66666666666674 532.88Q497.22 538.43, 491.66666666666674 568.98Q479.81 532.13, 516.6666666666667 520.27z" fill="#356cb1"></path><path d="M525.0000000000001 600L0 600 L0 603.97Q1.09 580.06, 25 581.15Q34.4 548.89, 66.66666666666667 558.29Q93.98 543.94, 108.33333333333334 571.25Q136.12 574.04, 133.33333333333334 601.82Q154.35 597.84, 158.33333333333334 618.86Q159.59 578.45, 200 579.7Q206.63 544.67, 241.66666666666669 551.3Q254.09 538.72, 266.6666666666667 551.15Q304.47 547.29, 308.33333333333337 585.09Q333.47 585.23, 333.33333333333337 610.37Q330.28 565.65, 375.00000000000006 562.59Q400.37 546.3, 416.66666666666674 571.67Q442.82 572.83, 441.66666666666674 598.98Q441.5 557.14, 483.3333333333334 556.97Q520.69 552.66, 525.0000000000001 590.02z" fill="white"></path></g><defs><mask id="SvgjsMask1103"><rect width="500" height="600" fill="#ffffff"></rect></mask></defs></svg>